<svg width="32" height="32" version="1.1" viewBox="0 0 31.999999 31.999999" xmlns="http://www.w3.org/2000/svg">
 <defs>
  <style>.cls-1{fill:#fff;}</style>
 </defs>
 <title>arrange</title>
 <g transform="scale(1.0369)" stroke-width=".96438" data-name="Layer 2">
  <g stroke-width=".96438" data-name="Layer 1">
   <path class="cls-1" d="m15.43 30.86a15.43 15.43 0 1 1 15.43 -15.43 15.45 15.45 0 0 1 -15.43 15.43zm0-29.15a13.72 13.72 0 1 0 13.71 13.72 13.74 13.74 0 0 0 -13.71 -13.72z" fill="#fff" stroke-width=".96438"/>
  </g>
 </g>
 <g transform="matrix(0 .073614 -.073606 0 33.537 -1.3452)" stroke-width="14.637">
  <g stroke-width="14.637">
   <path d="m324.39 150.81c-5.3-5.3-13.8-5.2999-19.1 0l-67.691 67.689-68.017-68.015c-5.3001-5.2999-13.8-5.3-19.1 0s-5.3001 13.8 0 19.1l68.017 68.015-70.622 70.62c-5.3001 5.2999-5.3 13.8 0 19.1 7.6283 5.9499 13.463 5.4851 19 0l70.622-70.62 70.622 70.62c7.6276 5.9607 13.156 5.8028 19 0 5.3-5.3 5.3-13.8 0-19.1l-70.422-70.62 67.691-67.689c5.3001-5.2999 5.3-13.8 0-19.1z" fill="#fff" stroke-width="14.637"/>
  </g>
 </g>
</svg>
