<?xml version="1.0" encoding="UTF-8" standalone="no"?>
<!-- Generator: Adobe Illustrator 17.1.0, SVG Export Plug-In . SVG Version: 6.00 Build 0)  -->

<svg
   xmlns:dc="http://purl.org/dc/elements/1.1/"
   xmlns:cc="http://creativecommons.org/ns#"
   xmlns:rdf="http://www.w3.org/1999/02/22-rdf-syntax-ns#"
   xmlns:svg="http://www.w3.org/2000/svg"
   xmlns="http://www.w3.org/2000/svg"
   xmlns:sodipodi="http://sodipodi.sourceforge.net/DTD/sodipodi-0.dtd"
   xmlns:inkscape="http://www.inkscape.org/namespaces/inkscape"
   version="1.1"
   id="Capa_1"
   x="0px"
   y="0px"
   viewBox="0 0 28 28"
   xml:space="preserve"
   width="28"
   height="28"
   sodipodi:docname="crop.svg"
   inkscape:version="0.92.1 r15371"><metadata
     id="metadata13424"><rdf:RDF><cc:Work
         rdf:about=""><dc:format>image/svg+xml</dc:format><dc:type
           rdf:resource="http://purl.org/dc/dcmitype/StillImage" /><dc:title></dc:title></cc:Work></rdf:RDF></metadata><defs
     id="defs13422" /><sodipodi:namedview
     pagecolor="#ffffff"
     bordercolor="#666666"
     borderopacity="1"
     objecttolerance="10"
     gridtolerance="10"
     guidetolerance="10"
     inkscape:pageopacity="0"
     inkscape:pageshadow="2"
     inkscape:window-width="1718"
     inkscape:window-height="1368"
     id="namedview13420"
     showgrid="false"
     inkscape:pagecheckerboard="true"
     inkscape:showpageshadow="false"
     inkscape:zoom="11.313708"
     inkscape:cx="-13.22923"
     inkscape:cy="29.378507"
     inkscape:window-x="3193"
     inkscape:window-y="0"
     inkscape:window-maximized="0"
     inkscape:current-layer="Capa_1" /><g
     id="g13389"
     transform="translate(0,-265.5468)" /><g
     id="g13391"
     transform="translate(0,-265.5468)" /><g
     id="g13393"
     transform="translate(0,-265.5468)" /><g
     id="g13395"
     transform="translate(0,-265.5468)" /><g
     id="g13397"
     transform="translate(0,-265.5468)" /><g
     id="g13399"
     transform="translate(0,-265.5468)" /><g
     id="g13401"
     transform="translate(0,-265.5468)" /><g
     id="g13403"
     transform="translate(0,-265.5468)" /><g
     id="g13405"
     transform="translate(0,-265.5468)" /><g
     id="g13407"
     transform="translate(0,-265.5468)" /><g
     id="g13409"
     transform="translate(0,-265.5468)" /><g
     id="g13411"
     transform="translate(0,-265.5468)" /><g
     id="g13413"
     transform="translate(0,-265.5468)" /><g
     id="g13415"
     transform="translate(0,-265.5468)" /><g
     id="g13417"
     transform="translate(0,-265.5468)" /><g
     style="stroke-width:16.00000191"
     id="g17952"
     transform="matrix(0.03452187,0,0,0.03452187,0,-0.4187974)" /><g
     style="stroke-width:16.00000191"
     id="g17954"
     transform="matrix(0.03452187,0,0,0.03452187,0,-0.4187974)" /><g
     style="stroke-width:16.00000191"
     id="g17956"
     transform="matrix(0.03452187,0,0,0.03452187,0,-0.4187974)" /><g
     style="stroke-width:16.00000191"
     id="g17958"
     transform="matrix(0.03452187,0,0,0.03452187,0,-0.4187974)" /><g
     style="stroke-width:16.00000191"
     id="g17960"
     transform="matrix(0.03452187,0,0,0.03452187,0,-0.4187974)" /><g
     style="stroke-width:16.00000191"
     id="g17962"
     transform="matrix(0.03452187,0,0,0.03452187,0,-0.4187974)" /><g
     style="stroke-width:16.00000191"
     id="g17964"
     transform="matrix(0.03452187,0,0,0.03452187,0,-0.4187974)" /><g
     style="stroke-width:16.00000191"
     id="g17966"
     transform="matrix(0.03452187,0,0,0.03452187,0,-0.4187974)" /><g
     style="stroke-width:16.00000191"
     id="g17968"
     transform="matrix(0.03452187,0,0,0.03452187,0,-0.4187974)" /><g
     style="stroke-width:16.00000191"
     id="g17970"
     transform="matrix(0.03452187,0,0,0.03452187,0,-0.4187974)" /><g
     style="stroke-width:16.00000191"
     id="g17972"
     transform="matrix(0.03452187,0,0,0.03452187,0,-0.4187974)" /><g
     style="stroke-width:16.00000191"
     id="g17974"
     transform="matrix(0.03452187,0,0,0.03452187,0,-0.4187974)" /><g
     style="stroke-width:16.00000191"
     id="g17976"
     transform="matrix(0.03452187,0,0,0.03452187,0,-0.4187974)" /><g
     style="stroke-width:16.00000191"
     id="g17978"
     transform="matrix(0.03452187,0,0,0.03452187,0,-0.4187974)" /><g
     style="stroke-width:16.00000191"
     id="g17980"
     transform="matrix(0.03452187,0,0,0.03452187,0,-0.4187974)" /><g
     id="g8646"
     transform="translate(-40.181377,-304.72394)" /><g
     id="g8648"
     transform="translate(-40.181377,-304.72394)" /><g
     id="g8650"
     transform="translate(-40.181377,-304.72394)" /><g
     id="g8652"
     transform="translate(-40.181377,-304.72394)" /><g
     id="g8654"
     transform="translate(-40.181377,-304.72394)" /><g
     id="g8656"
     transform="translate(-40.181377,-304.72394)" /><g
     id="g8658"
     transform="translate(-40.181377,-304.72394)" /><g
     id="g8660"
     transform="translate(-40.181377,-304.72394)" /><g
     id="g8662"
     transform="translate(-40.181377,-304.72394)" /><g
     id="g8664"
     transform="translate(-40.181377,-304.72394)" /><g
     id="g8666"
     transform="translate(-40.181377,-304.72394)" /><g
     id="g8668"
     transform="translate(-40.181377,-304.72394)" /><g
     id="g8670"
     transform="translate(-40.181377,-304.72394)" /><g
     id="g8672"
     transform="translate(-40.181377,-304.72394)" /><g
     id="g8674"
     transform="translate(-40.181377,-304.72394)" /><g
     style="stroke-width:18.28572083"
     id="g13170"
     transform="matrix(0.03070211,0,0,0.03070211,-40.181367,-24.942325)" /><g
     style="stroke-width:18.28572083"
     id="g13172"
     transform="matrix(0.03070211,0,0,0.03070211,-40.181367,-24.942325)" /><g
     style="stroke-width:18.28572083"
     id="g13174"
     transform="matrix(0.03070211,0,0,0.03070211,-40.181367,-24.942325)" /><g
     style="stroke-width:18.28572083"
     id="g13176"
     transform="matrix(0.03070211,0,0,0.03070211,-40.181367,-24.942325)" /><g
     style="stroke-width:18.28572083"
     id="g13178"
     transform="matrix(0.03070211,0,0,0.03070211,-40.181367,-24.942325)" /><g
     style="stroke-width:18.28572083"
     id="g13180"
     transform="matrix(0.03070211,0,0,0.03070211,-40.181367,-24.942325)" /><g
     style="stroke-width:18.28572083"
     id="g13182"
     transform="matrix(0.03070211,0,0,0.03070211,-40.181367,-24.942325)" /><g
     style="stroke-width:18.28572083"
     id="g13184"
     transform="matrix(0.03070211,0,0,0.03070211,-40.181367,-24.942325)" /><g
     style="stroke-width:18.28572083"
     id="g13186"
     transform="matrix(0.03070211,0,0,0.03070211,-40.181367,-24.942325)" /><g
     style="stroke-width:18.28572083"
     id="g13188"
     transform="matrix(0.03070211,0,0,0.03070211,-40.181367,-24.942325)" /><g
     style="stroke-width:18.28572083"
     id="g13190"
     transform="matrix(0.03070211,0,0,0.03070211,-40.181367,-24.942325)" /><g
     style="stroke-width:18.28572083"
     id="g13192"
     transform="matrix(0.03070211,0,0,0.03070211,-40.181367,-24.942325)" /><g
     style="stroke-width:18.28572083"
     id="g13194"
     transform="matrix(0.03070211,0,0,0.03070211,-40.181367,-24.942325)" /><g
     style="stroke-width:18.28572083"
     id="g13196"
     transform="matrix(0.03070211,0,0,0.03070211,-40.181367,-24.942325)" /><g
     style="stroke-width:18.28572083"
     id="g13198"
     transform="matrix(0.03070211,0,0,0.03070211,-40.181367,-24.942325)" /><rect
     style="opacity:1;fill:#ffffff;fill-opacity:1;stroke:none;stroke-width:0.5669291;stroke-linecap:butt;stroke-linejoin:miter;stroke-miterlimit:4;stroke-dasharray:none;stroke-dashoffset:7.4000001;stroke-opacity:1;paint-order:normal"
     id="rect8417-5-7-8"
     width="3.1111069"
     height="3.1111109"
     x="-28"
     y="19"
     transform="rotate(-90)" /><rect
     style="opacity:1;fill:#ffffff;fill-opacity:1;stroke:none;stroke-width:0.5669291;stroke-linecap:butt;stroke-linejoin:miter;stroke-miterlimit:4;stroke-dasharray:none;stroke-dashoffset:7.4000001;stroke-opacity:1;paint-order:normal"
     id="rect8417-5-7-5"
     width="3"
     height="3"
     x="0"
     y="6" /><path
     style="fill:none;stroke:#ffffff;stroke-width:3;stroke-linecap:butt;stroke-linejoin:round;stroke-miterlimit:4;stroke-dasharray:none;stroke-opacity:1"
     d="M 6.5,1 V 21.5 H 27"
     id="path13381"
     inkscape:connector-curvature="0"
     sodipodi:nodetypes="ccc" /><path
     style="fill:none;stroke:#ffffff;stroke-width:3.00000048;stroke-linecap:butt;stroke-linejoin:round;stroke-miterlimit:4;stroke-dasharray:none;stroke-opacity:1"
     d="M 10,7.5000003 H 20.5 V 18"
     id="path13383"
     inkscape:connector-curvature="0"
     sodipodi:nodetypes="ccc" /></svg>