<?xml version="1.0" encoding="UTF-8" standalone="no"?>
<!-- Generator: Adobe Illustrator 19.0.0, SVG Export Plug-In . SVG Version: 6.00 Build 0)  -->

<svg
   xmlns:dc="http://purl.org/dc/elements/1.1/"
   xmlns:cc="http://creativecommons.org/ns#"
   xmlns:rdf="http://www.w3.org/1999/02/22-rdf-syntax-ns#"
   xmlns:svg="http://www.w3.org/2000/svg"
   xmlns="http://www.w3.org/2000/svg"
   xmlns:sodipodi="http://sodipodi.sourceforge.net/DTD/sodipodi-0.dtd"
   xmlns:inkscape="http://www.inkscape.org/namespaces/inkscape"
   version="1.1"
   id="Capa_1"
   x="0px"
   y="0px"
   viewBox="0 0 24 24"
   xml:space="preserve"
   width="24"
   height="24"
   sodipodi:docname="home.svg"
   inkscape:version="0.92.1 r15371"><metadata
     id="metadata8476"><rdf:RDF><cc:Work
         rdf:about=""><dc:format>image/svg+xml</dc:format><dc:type
           rdf:resource="http://purl.org/dc/dcmitype/StillImage" /><dc:title></dc:title></cc:Work></rdf:RDF></metadata><defs
     id="defs8474" /><sodipodi:namedview
     pagecolor="#ffffff"
     bordercolor="#666666"
     borderopacity="1"
     objecttolerance="10"
     gridtolerance="10"
     guidetolerance="10"
     inkscape:pageopacity="0"
     inkscape:pageshadow="2"
     inkscape:window-width="2120"
     inkscape:window-height="1145"
     id="namedview8472"
     showgrid="false"
     inkscape:pagecheckerboard="true"
     inkscape:showpageshadow="false"
     inkscape:zoom="13.3125"
     inkscape:cx="44.632541"
     inkscape:cy="24.786911"
     inkscape:window-x="0"
     inkscape:window-y="0"
     inkscape:window-maximized="0"
     inkscape:current-layer="Capa_1" /><g
     id="g8441"
     transform="matrix(0.0625,0,0,0.0625,0,-8)"
     style="stroke-width:16" /><g
     id="g8443"
     transform="matrix(0.0625,0,0,0.0625,0,-8)"
     style="stroke-width:16" /><g
     id="g8445"
     transform="matrix(0.0625,0,0,0.0625,0,-8)"
     style="stroke-width:16" /><g
     id="g8447"
     transform="matrix(0.0625,0,0,0.0625,0,-8)"
     style="stroke-width:16" /><g
     id="g8449"
     transform="matrix(0.0625,0,0,0.0625,0,-8)"
     style="stroke-width:16" /><g
     id="g8451"
     transform="matrix(0.0625,0,0,0.0625,0,-8)"
     style="stroke-width:16" /><g
     id="g8453"
     transform="matrix(0.0625,0,0,0.0625,0,-8)"
     style="stroke-width:16" /><g
     id="g8455"
     transform="matrix(0.0625,0,0,0.0625,0,-8)"
     style="stroke-width:16" /><g
     id="g8457"
     transform="matrix(0.0625,0,0,0.0625,0,-8)"
     style="stroke-width:16" /><g
     id="g8459"
     transform="matrix(0.0625,0,0,0.0625,0,-8)"
     style="stroke-width:16" /><g
     id="g8461"
     transform="matrix(0.0625,0,0,0.0625,0,-8)"
     style="stroke-width:16" /><g
     id="g8463"
     transform="matrix(0.0625,0,0,0.0625,0,-8)"
     style="stroke-width:16" /><g
     id="g8465"
     transform="matrix(0.0625,0,0,0.0625,0,-8)"
     style="stroke-width:16" /><g
     id="g8467"
     transform="matrix(0.0625,0,0,0.0625,0,-8)"
     style="stroke-width:16" /><g
     id="g8469"
     transform="matrix(0.0625,0,0,0.0625,0,-8)"
     style="stroke-width:16" /><rect
     style="opacity:1;fill:#ffffff;fill-opacity:1;stroke:none;stroke-width:0.5669291;stroke-linecap:butt;stroke-linejoin:miter;stroke-miterlimit:4;stroke-dasharray:none;stroke-dashoffset:7.4000001;stroke-opacity:1;paint-order:normal"
     id="rect8590"
     width="20"
     height="3"
     x="2"
     y="7"
     rx="1"
     ry="1" /><rect
     style="opacity:1;fill:#ffffff;fill-opacity:1;stroke:none;stroke-width:0.5669291;stroke-linecap:butt;stroke-linejoin:miter;stroke-miterlimit:4;stroke-dasharray:none;stroke-dashoffset:7.4000001;stroke-opacity:1;paint-order:normal"
     id="rect8590-8"
     width="20"
     height="3"
     x="2"
     y="13"
     rx="1"
     ry="1" /><rect
     style="opacity:1;fill:#ffffff;fill-opacity:1;stroke:none;stroke-width:0.5669291;stroke-linecap:butt;stroke-linejoin:miter;stroke-miterlimit:4;stroke-dasharray:none;stroke-dashoffset:7.4000001;stroke-opacity:1;paint-order:normal"
     id="rect8590-4"
     width="10"
     height="3"
     x="2"
     y="19"
     rx="1"
     ry="1" /><rect
     style="opacity:1;fill:#ffffff;fill-opacity:1;stroke:none;stroke-width:0.5669291;stroke-linecap:butt;stroke-linejoin:miter;stroke-miterlimit:4;stroke-dasharray:none;stroke-dashoffset:7.4000001;stroke-opacity:1;paint-order:normal"
     id="rect8590-3"
     width="20"
     height="3"
     x="2"
     y="1"
     rx="1"
     ry="1" /><rect
     style="opacity:1;fill:#ffffff;fill-opacity:1;stroke:none;stroke-width:0.5669291;stroke-linecap:butt;stroke-linejoin:miter;stroke-miterlimit:4;stroke-dasharray:none;stroke-dashoffset:7.4000001;stroke-opacity:1;paint-order:normal"
     id="rect8590-4-6"
     width="3"
     height="3"
     x="19"
     y="19"
     rx="1"
     ry="1" /><rect
     style="opacity:1;fill:#ffffff;fill-opacity:1;stroke:none;stroke-width:0.56692916;stroke-linecap:butt;stroke-linejoin:miter;stroke-miterlimit:4;stroke-dasharray:none;stroke-dashoffset:7.4000001;stroke-opacity:1;paint-order:normal"
     id="rect8590-4-6-2"
     width="3"
     height="3"
     x="14"
     y="19"
     rx="1"
     ry="1" /></svg>