<svg width="32" height="32" version="1.1" viewBox="0 0 31.999999 31.999999" xmlns="http://www.w3.org/2000/svg">
 <defs>
  <style>.cls-1{fill:#fff;}</style>
 </defs>
 <title>arrange</title>
 <g transform="scale(1.0369)" stroke-width=".96438" data-name="Layer 2">
  <g stroke-width=".96438" data-name="Layer 1">
   <path class="cls-1" d="m15.43 30.86a15.43 15.43 0 1 1 15.43 -15.43 15.45 15.45 0 0 1 -15.43 15.43zm0-29.15a13.72 13.72 0 1 0 13.71 13.72 13.74 13.74 0 0 0 -13.71 -13.72z" fill="#fff" stroke-width=".96438"/>
  </g>
 </g>
 <g transform="matrix(.039063 0 0 .039063 5 6.3043)" stroke-width="25.6">
  <g stroke-width="25.6">
   <g stroke-width="25.6">
    <g fill="#fff" stroke-width="25.6">
     <path d="m512 256c0-122.95-99.656-222.61-222.61-222.61-119.93 0-217.68 94.819-222.41 213.58l-28.978-28.978c-8.693-8.693-22.788-8.693-31.482 0-8.693 8.693-8.693 22.788 0 31.482l66.783 66.783c8.693 8.693 22.788 8.693 31.482 0l66.783-66.783c8.693-8.693 8.693-22.788 0-31.482-8.693-8.693-22.788-8.693-31.482 0l-28.53 28.53c4.923-93.959 82.649-168.62 177.84-168.62 98.364 0 178.09 79.723 178.09 178.09 0 0.469 0.019 0.933 0.048 1.394-0.037 0.476-0.084 0.949-0.092 1.435-0.2 13.245-1.87 26.424-4.964 39.201-2.872 11.954 4.497 23.975 16.451 26.847 1.759 0.423 3.495 0.623 5.231 0.623 10.04 0 19.144-6.856 21.615-17.052 3.851-15.939 5.921-32.39 6.189-48.929 9e-3 -0.553-9e-3 -1.099-0.04-1.643 0.05-0.619 0.083-1.243 0.083-1.876z"/>
     <path d="m458.91 365.04c-9.55-7.769-23.552-6.278-31.299 3.272-8.281 10.195-17.742 19.523-28.138 27.693-9.661 7.591-11.309 21.593-3.74 31.254 4.408 5.588 10.93 8.504 17.519 8.504 4.808 0 9.683-1.558 13.757-4.764 12.978-10.218 24.821-21.882 35.172-34.638 7.748-9.55 6.279-23.574-3.271-31.321z"/>
     <path d="m328.66 429.75c-12.8 2.872-26.001 4.341-39.268 4.341-12.31 0-22.261 9.973-22.261 22.261s9.951 22.261 22.261 22.261c16.54 0 33.035-1.825 49.041-5.432 11.999-2.694 19.523-14.603 16.829-26.602s-14.67-19.478-26.602-16.829z"/>
    </g>
   </g>
  </g>
 </g>
</svg>
