<svg width="32" height="32" version="1.1" viewBox="0 0 31.999999 31.999999" xmlns="http://www.w3.org/2000/svg">
 <defs>
  <style>.cls-1{fill:#fff;}</style>
 </defs>
 <title>arrange</title>
 <g transform="scale(1.0369)" stroke-width=".96438" data-name="Layer 2">
  <g stroke-width=".96438" data-name="Layer 1">
   <path class="cls-1" d="m15.43 30.86a15.43 15.43 0 1 1 15.43 -15.43 15.45 15.45 0 0 1 -15.43 15.43zm0-29.15a13.72 13.72 0 1 0 13.71 13.72 13.74 13.74 0 0 0 -13.71 -13.72z" fill="#fff" stroke-width=".96438"/>
  </g>
 </g>
 <g transform="matrix(.047186 0 0 .044898 3.7891 3.5061)" stroke-width="21.726">
  <g stroke-width="21.726">
   <path d="m513.1 460.2h-508.63l6.5295 20.4c0 11.3 9.1 20.4 20.4 20.4h449.2c11.3 0 20.4-9.1 20.4-20.4z" fill="#fff" stroke-width="21.726"/>
  </g>
 </g>
 <path d="m15.348 21.716c0.5011 0.50545 1.1155 0.22658 1.3029 0l5.1113-5.499c0.33552-0.36166 0.31374-0.92376-0.04793-1.2593-0.36167-0.33552-0.92378-0.31373-1.2549 0.04793l-3.5687 3.8388v-11.556c0-0.49238-0.39653-0.8889-0.88892-0.8889s-0.88892 0.39652-0.88892 0.8889v11.56l-3.5687-3.8388c-0.33552-0.36166-0.89763-0.37909-1.2593-0.04794-0.36167 0.33552-0.3791 0.89762-0.04793 1.2593z" fill="#fff"/>
</svg>
