<?xml version="1.0" encoding="UTF-8" standalone="no"?>
<!-- Generator: Adobe Illustrator 17.1.0, SVG Export Plug-In . SVG Version: 6.00 Build 0)  -->

<svg
   xmlns:dc="http://purl.org/dc/elements/1.1/"
   xmlns:cc="http://creativecommons.org/ns#"
   xmlns:rdf="http://www.w3.org/1999/02/22-rdf-syntax-ns#"
   xmlns:svg="http://www.w3.org/2000/svg"
   xmlns="http://www.w3.org/2000/svg"
   xmlns:sodipodi="http://sodipodi.sourceforge.net/DTD/sodipodi-0.dtd"
   xmlns:inkscape="http://www.inkscape.org/namespaces/inkscape"
   version="1.1"
   id="Capa_1"
   x="0px"
   y="0px"
   viewBox="0 0 28 28"
   xml:space="preserve"
   width="28"
   height="28"
   sodipodi:docname="text.svg"
   inkscape:version="0.92.1 r15371"><metadata
     id="metadata13424"><rdf:RDF><cc:Work
         rdf:about=""><dc:format>image/svg+xml</dc:format><dc:type
           rdf:resource="http://purl.org/dc/dcmitype/StillImage" /><dc:title /></cc:Work></rdf:RDF></metadata><defs
     id="defs13422" /><sodipodi:namedview
     pagecolor="#ffffff"
     bordercolor="#666666"
     borderopacity="1"
     objecttolerance="10"
     gridtolerance="10"
     guidetolerance="10"
     inkscape:pageopacity="0"
     inkscape:pageshadow="2"
     inkscape:window-width="2011"
     inkscape:window-height="1368"
     id="namedview13420"
     showgrid="false"
     inkscape:pagecheckerboard="true"
     inkscape:showpageshadow="false"
     inkscape:zoom="11.313708"
     inkscape:cx="-25.490484"
     inkscape:cy="29.378507"
     inkscape:window-x="125"
     inkscape:window-y="41"
     inkscape:window-maximized="0"
     inkscape:current-layer="Capa_1" /><g
     id="g13389"
     transform="translate(0,-265.5468)" /><g
     id="g13391"
     transform="translate(0,-265.5468)" /><g
     id="g13393"
     transform="translate(0,-265.5468)" /><g
     id="g13395"
     transform="translate(0,-265.5468)" /><g
     id="g13397"
     transform="translate(0,-265.5468)" /><g
     id="g13399"
     transform="translate(0,-265.5468)" /><g
     id="g13401"
     transform="translate(0,-265.5468)" /><g
     id="g13403"
     transform="translate(0,-265.5468)" /><g
     id="g13405"
     transform="translate(0,-265.5468)" /><g
     id="g13407"
     transform="translate(0,-265.5468)" /><g
     id="g13409"
     transform="translate(0,-265.5468)" /><g
     id="g13411"
     transform="translate(0,-265.5468)" /><g
     id="g13413"
     transform="translate(0,-265.5468)" /><g
     id="g13415"
     transform="translate(0,-265.5468)" /><g
     id="g13417"
     transform="translate(0,-265.5468)" /><g
     style="stroke-width:16.00000191"
     id="g17952"
     transform="matrix(0.03452187,0,0,0.03452187,0,-0.4187974)" /><g
     style="stroke-width:16.00000191"
     id="g17954"
     transform="matrix(0.03452187,0,0,0.03452187,0,-0.4187974)" /><g
     style="stroke-width:16.00000191"
     id="g17956"
     transform="matrix(0.03452187,0,0,0.03452187,0,-0.4187974)" /><g
     style="stroke-width:16.00000191"
     id="g17958"
     transform="matrix(0.03452187,0,0,0.03452187,0,-0.4187974)" /><g
     style="stroke-width:16.00000191"
     id="g17960"
     transform="matrix(0.03452187,0,0,0.03452187,0,-0.4187974)" /><g
     style="stroke-width:16.00000191"
     id="g17962"
     transform="matrix(0.03452187,0,0,0.03452187,0,-0.4187974)" /><g
     style="stroke-width:16.00000191"
     id="g17964"
     transform="matrix(0.03452187,0,0,0.03452187,0,-0.4187974)" /><g
     style="stroke-width:16.00000191"
     id="g17966"
     transform="matrix(0.03452187,0,0,0.03452187,0,-0.4187974)" /><g
     style="stroke-width:16.00000191"
     id="g17968"
     transform="matrix(0.03452187,0,0,0.03452187,0,-0.4187974)" /><g
     style="stroke-width:16.00000191"
     id="g17970"
     transform="matrix(0.03452187,0,0,0.03452187,0,-0.4187974)" /><g
     style="stroke-width:16.00000191"
     id="g17972"
     transform="matrix(0.03452187,0,0,0.03452187,0,-0.4187974)" /><g
     style="stroke-width:16.00000191"
     id="g17974"
     transform="matrix(0.03452187,0,0,0.03452187,0,-0.4187974)" /><g
     style="stroke-width:16.00000191"
     id="g17976"
     transform="matrix(0.03452187,0,0,0.03452187,0,-0.4187974)" /><g
     style="stroke-width:16.00000191"
     id="g17978"
     transform="matrix(0.03452187,0,0,0.03452187,0,-0.4187974)" /><g
     style="stroke-width:16.00000191"
     id="g17980"
     transform="matrix(0.03452187,0,0,0.03452187,0,-0.4187974)" /><g
     id="g8646"
     transform="translate(-40.181377,-304.72394)" /><g
     id="g8648"
     transform="translate(-40.181377,-304.72394)" /><g
     id="g8650"
     transform="translate(-40.181377,-304.72394)" /><g
     id="g8652"
     transform="translate(-40.181377,-304.72394)" /><g
     id="g8654"
     transform="translate(-40.181377,-304.72394)" /><g
     id="g8656"
     transform="translate(-40.181377,-304.72394)" /><g
     id="g8658"
     transform="translate(-40.181377,-304.72394)" /><g
     id="g8660"
     transform="translate(-40.181377,-304.72394)" /><g
     id="g8662"
     transform="translate(-40.181377,-304.72394)" /><g
     id="g8664"
     transform="translate(-40.181377,-304.72394)" /><g
     id="g8666"
     transform="translate(-40.181377,-304.72394)" /><g
     id="g8668"
     transform="translate(-40.181377,-304.72394)" /><g
     id="g8670"
     transform="translate(-40.181377,-304.72394)" /><g
     id="g8672"
     transform="translate(-40.181377,-304.72394)" /><g
     id="g8674"
     transform="translate(-40.181377,-304.72394)" /><g
     style="stroke-width:18.28572083"
     id="g13170"
     transform="matrix(0.03070211,0,0,0.03070211,-40.181367,-24.942325)" /><g
     style="stroke-width:18.28572083"
     id="g13172"
     transform="matrix(0.03070211,0,0,0.03070211,-40.181367,-24.942325)" /><g
     style="stroke-width:18.28572083"
     id="g13174"
     transform="matrix(0.03070211,0,0,0.03070211,-40.181367,-24.942325)" /><g
     style="stroke-width:18.28572083"
     id="g13176"
     transform="matrix(0.03070211,0,0,0.03070211,-40.181367,-24.942325)" /><g
     style="stroke-width:18.28572083"
     id="g13178"
     transform="matrix(0.03070211,0,0,0.03070211,-40.181367,-24.942325)" /><g
     style="stroke-width:18.28572083"
     id="g13180"
     transform="matrix(0.03070211,0,0,0.03070211,-40.181367,-24.942325)" /><g
     style="stroke-width:18.28572083"
     id="g13182"
     transform="matrix(0.03070211,0,0,0.03070211,-40.181367,-24.942325)" /><g
     style="stroke-width:18.28572083"
     id="g13184"
     transform="matrix(0.03070211,0,0,0.03070211,-40.181367,-24.942325)" /><g
     style="stroke-width:18.28572083"
     id="g13186"
     transform="matrix(0.03070211,0,0,0.03070211,-40.181367,-24.942325)" /><g
     style="stroke-width:18.28572083"
     id="g13188"
     transform="matrix(0.03070211,0,0,0.03070211,-40.181367,-24.942325)" /><g
     style="stroke-width:18.28572083"
     id="g13190"
     transform="matrix(0.03070211,0,0,0.03070211,-40.181367,-24.942325)" /><g
     style="stroke-width:18.28572083"
     id="g13192"
     transform="matrix(0.03070211,0,0,0.03070211,-40.181367,-24.942325)" /><g
     style="stroke-width:18.28572083"
     id="g13194"
     transform="matrix(0.03070211,0,0,0.03070211,-40.181367,-24.942325)" /><g
     style="stroke-width:18.28572083"
     id="g13196"
     transform="matrix(0.03070211,0,0,0.03070211,-40.181367,-24.942325)" /><g
     style="stroke-width:18.28572083"
     id="g13198"
     transform="matrix(0.03070211,0,0,0.03070211,-40.181367,-24.942325)" /><g
     id="g17809"
     transform="matrix(0.31791213,0,0,0.26114507,-1.2600196,-1.3985272)"
     style="fill:#ffffff;fill-opacity:1;stroke:#ffffff;stroke-width:0.6941216;stroke-miterlimit:4;stroke-dasharray:none;stroke-opacity:1"><path
       id="path17789"
       d="M 36.452,9.504 C 35.916,7.856 34.38,6.748 32.648,6.748 c -1.732,0 -3.264,1.108 -3.808,2.756 L 4.508,84.008 c -0.684,2.092 0.46,4.36 2.56,5.049 2.1,0.68 4.36,-0.461 5.044,-2.564 l 5.632,-17.252 h 29.8 l 5.632,17.252 c 0.557,1.688 2.116,2.752 3.805,2.752 0.416,0 0.836,-0.064 1.248,-0.196 2.096,-0.688 3.248,-2.937 2.56,-5.048 z M 20.364,61.252 32.652,23.632 44.94,61.252 Z"
       inkscape:connector-curvature="0"
       style="fill:#ffffff;fill-opacity:1;stroke:#ffffff;stroke-width:0.6941216;stroke-miterlimit:4;stroke-dasharray:none;stroke-opacity:1" /><path
       id="path17791"
       d="m 88.305,39.28 c -1.961,-1.96 -4.753,-2.952 -8.297,-2.952 -4.896,0 -7.576,2.36 -9.936,4.444 l -0.336,0.296 c -1.66,1.452 -1.824,3.984 -0.364,5.644 1.46,1.66 3.983,1.82 5.647,0.364 l 0.345,-0.304 c 2.155,-1.9 2.856,-2.444 4.644,-2.444 1.309,0 2.244,0.22 2.633,0.604 0.795,0.796 0.991,3.24 1.035,5.888 -15.508,1.943 -21.424,15.023 -21.424,23.516 0,14.916 14.352,14.916 19.072,14.916 h 6.367 c 2.209,0 4,-1.779 4,-4 V 53.5 C 91.684,47.944 91.708,42.692 88.305,39.28 Z m -6.989,41.972 c -9.412,0 -11.068,-2.229 -11.068,-6.916 0,-3.943 2.531,-13.564 13.428,-15.452 v 22.368 z"
       inkscape:connector-curvature="0"
       style="fill:#ffffff;fill-opacity:1;stroke:#ffffff;stroke-width:0.6941216;stroke-miterlimit:4;stroke-dasharray:none;stroke-opacity:1" /></g><path
     style="fill:none;stroke:#ffffff;stroke-width:2.5;stroke-linecap:butt;stroke-linejoin:miter;stroke-miterlimit:4;stroke-dasharray:none;stroke-opacity:1"
     d="M 0,26.5 H 28"
     id="path17569"
     inkscape:connector-curvature="0"
     sodipodi:nodetypes="cc" /></svg>