<svg width="32" height="32" version="1.1" viewBox="0 0 31.999999 31.999999" xmlns="http://www.w3.org/2000/svg">
 <defs>
  <style>.cls-1{fill:#fff;}</style>
 </defs>
 <g transform="matrix(1.0369,0,0,1.0369,2.66e-4,0)" stroke-width=".96438" data-name="Layer 2">
  <g stroke-width=".96438" data-name="Layer 1">
   <path class="cls-1" d="m15.43 30.86a15.43 15.43 0 1 1 15.43 -15.43 15.45 15.45 0 0 1 -15.43 15.43zm0-29.15a13.72 13.72 0 1 0 13.71 13.72 13.74 13.74 0 0 0 -13.71 -13.72z" fill="#fff" stroke-width=".96438"/>
  </g>
 </g>
 <path d="m11.281 16.652c-0.50224-0.5011-0.22514-1.1155 0-1.3029l5.4641-5.1113c0.35936-0.33552 0.91789-0.31374 1.2513 0.04793 0.33339 0.36167 0.31174 0.92378-0.04763 1.2549l-3.8144 3.5687h16.447v1.7778h-16.451l3.8144 3.5687c0.35936 0.33552 0.37668 0.89763 0.04763 1.2593-0.33339 0.36167-0.89192 0.3791-1.2513 0.04793z" fill="#fff"/>
</svg>
